<?xml version="1.0" encoding="utf-8"?>
<!-- Generator: Adobe Illustrator 16.0.0, SVG Export Plug-In . SVG Version: 6.00 Build 0)  -->
<!DOCTYPE svg PUBLIC "-//W3C//DTD SVG 1.1//EN" "http://www.w3.org/Graphics/SVG/1.1/DTD/svg11.dtd">
<svg version="1.1" id="Layer_1" xmlns="http://www.w3.org/2000/svg" xmlns:xlink="http://www.w3.org/1999/xlink" x="0px" y="0px"
	 width="24px" height="24px" viewBox="0 0 24 24" enable-background="new 0 0 24 24" xml:space="preserve">
<rect x="-53" fill="none" width="123" height="89"/>
<path fill="#B83B1D" d="m24,12.006c0,1.101 -0.144,2.161 -0.43,3.182c-0.286,1.018 -0.69,1.975 -1.213,2.863c-0.521,0.892 -1.148,1.701 -1.878,2.431s-1.539,1.355 -2.426,1.877c-0.888,0.522 -1.843,0.928 -2.866,1.213c-1.023,0.285 -2.085,0.428 -3.187,0.428s-2.164,-0.143 -3.188,-0.429c-1.023,-0.285 -1.979,-0.69 -2.866,-1.213c-0.888,-0.521 -1.696,-1.147 -2.426,-1.877s-1.356,-1.539 -1.878,-2.431c-0.523,-0.889 -0.928,-1.846 -1.213,-2.863c-0.286,-1.02 -0.429,-2.081 -0.429,-3.181s0.143,-2.163 0.43,-3.187c0.285,-1.022 0.689,-1.979 1.213,-2.87c0.521,-0.89 1.148,-1.7 1.878,-2.43s1.538,-1.355 2.426,-1.877c0.887,-0.522 1.842,-0.927 2.866,-1.212c1.023,-0.286 2.085,-0.43 3.187,-0.43s2.164,0.144 3.188,0.43c1.023,0.285 1.979,0.69 2.866,1.213c0.886,0.521 1.696,1.147 2.425,1.877s1.356,1.54 1.878,2.43c0.522,0.891 0.927,1.848 1.213,2.87c0.286,1.023 0.43,2.085 0.43,3.186zm-12,-10.288c-0.944,0 -1.855,0.123 -2.731,0.369c-0.877,0.247 -1.697,0.594 -2.458,1.041s-1.457,0.984 -2.082,1.609c-0.627,0.626 -1.164,1.319 -1.61,2.081c-0.448,0.762 -0.794,1.581 -1.037,2.456c-0.243,0.878 -0.365,1.787 -0.365,2.731s0.122,1.854 0.365,2.731c0.243,0.875 0.589,1.692 1.036,2.451c0.446,0.757 0.983,1.451 1.61,2.081c0.625,0.628 1.32,1.165 2.082,1.609c0.762,0.443 1.581,0.789 2.458,1.034c0.876,0.248 1.787,0.37 2.731,0.37s1.854,-0.122 2.732,-0.37c0.876,-0.245 1.695,-0.591 2.457,-1.034c0.763,-0.444 1.455,-0.981 2.082,-1.609c0.626,-0.63 1.163,-1.324 1.61,-2.081c0.446,-0.759 0.794,-1.576 1.042,-2.451c0.246,-0.878 0.369,-1.787 0.369,-2.731s-0.123,-1.854 -0.369,-2.731c-0.248,-0.875 -0.596,-1.694 -1.042,-2.456c-0.447,-0.762 -0.984,-1.455 -1.61,-2.081c-0.627,-0.625 -1.319,-1.162 -2.082,-1.609c-0.762,-0.447 -1.581,-0.794 -2.457,-1.041c-0.877,-0.246 -1.787,-0.369 -2.731,-0.369zm3.005,9.282l-4.067,-4l2.78,0l5.151,5.006l-5.151,4.994l-2.78,0l4.067,-4l-9.005,0l0,-2l9.005,0z" id="svg_2" transform="rotate(180 12,12) "/>
</svg>