<?xml version="1.0" encoding="utf-8"?>
<!-- Generator: Adobe Illustrator 16.0.0, SVG Export Plug-In . SVG Version: 6.00 Build 0)  -->
<!DOCTYPE svg PUBLIC "-//W3C//DTD SVG 1.1//EN" "http://www.w3.org/Graphics/SVG/1.1/DTD/svg11.dtd">
<svg version="1.1" id="Layer_1" xmlns="http://www.w3.org/2000/svg" xmlns:xlink="http://www.w3.org/1999/xlink" x="0px" y="0px"
	 width="32px" height="32px" viewBox="0 0 32 32" enable-background="new 0 0 32 32" xml:space="preserve">
<path opacity="0.75" fill="#FFFFFF" d="M16,31.5C7.453,31.5,0.5,24.546,0.5,16S7.453,0.5,16,0.5c8.546,0,15.5,6.954,15.5,15.5
	S24.546,31.5,16,31.5z"/>
<g>
  <rect height="9" width="4" y="13.97" x="9.1025" fill="#217346"/>
  <rect height="14" width="4" y="8.97" x="14.0891" fill="#217346"/>
  <rect height="11" width="4" y="11.9701" x="19.063" fill="#217346"/>
</g>
<path fill="#86BFA0" d="M16,1c8.271,0,15,6.729,15,15s-6.729,15-15,15S1,24.271,1,16S7.729,1,16,1 M16,0C7.164,0,0,7.164,0,16
	c0,8.837,7.164,16,16,16c8.837,0,16-7.163,16-16C32,7.164,24.837,0,16,0L16,0z"/>
</svg>
